<?xml version="1.0" standalone="no"?>
<!DOCTYPE svg PUBLIC "-//W3C//DTD SVG 20010904//EN"
 "http://www.w3.org/TR/2001/REC-SVG-20010904/DTD/svg10.dtd">
<svg version="1.0" xmlns="http://www.w3.org/2000/svg"
 width="700.000000pt" height="700.000000pt" viewBox="0 0 700.000000 700.000000"
 preserveAspectRatio="xMidYMid meet">
<metadata>
Created by potrace 1.14, written by Peter Selinger 2001-2017
</metadata>
<g transform="translate(0.000000,700.000000) scale(0.100000,-0.100000)"
fill="#000000" stroke="none">
<path d="M194 6801 c-2 -2 -4 -221 -4 -485 l0 -481 1167 -1167 1167 -1167 -34
-37 c-19 -19 -226 -226 -459 -460 -306 -305 -428 -421 -436 -414 -7 6 -15 44
-18 86 -10 132 -78 234 -195 291 -48 24 -69 28 -142 28 -71 0 -94 -4 -140 -26
-71 -34 -136 -99 -169 -169 -22 -47 -26 -69 -26 -145 1 -78 4 -97 29 -144 59
-114 161 -180 290 -189 l71 -4 103 -101 c56 -56 102 -105 102 -110 0 -5 -17
-25 -37 -46 -21 -20 -85 -93 -142 -161 -58 -69 -132 -156 -166 -195 -51 -59
-174 -204 -237 -280 -9 -11 -48 -58 -88 -105 -40 -47 -80 -95 -91 -107 l-18
-22 -53 55 c-29 30 -69 63 -88 73 -38 20 -102 21 -138 2 -78 -41 -100 -159
-42 -225 l30 -34 -54 -17 c-162 -51 -300 -189 -351 -350 -24 -76 -28 -205 -9
-286 40 -172 178 -322 352 -382 87 -30 246 -29 334 1 162 56 286 179 339 339
l21 64 23 -21 c70 -65 188 -50 229 29 40 76 25 133 -57 219 l-62 64 32 26
c274 233 416 353 503 427 57 50 116 99 130 111 86 72 208 182 224 202 l19 24
132 -132 132 -132 6 -77 c21 -316 414 -435 606 -185 164 215 17 527 -255 542
-67 4 -74 6 -108 41 l-36 36 460 460 460 460 460 -460 460 -460 -36 -36 c-33
-34 -40 -37 -109 -41 -181 -12 -313 -145 -320 -326 -5 -140 66 -257 193 -318
217 -103 465 46 480 287 l4 77 133 132 132 131 29 -33 c28 -31 333 -296 529
-458 96 -80 112 -93 190 -161 28 -24 74 -64 103 -88 29 -24 52 -47 52 -50 0
-4 -27 -35 -59 -68 -84 -85 -97 -151 -46 -229 39 -59 141 -74 200 -30 45 35
47 35 52 7 9 -62 77 -177 142 -242 110 -110 239 -160 396 -154 151 5 278 63
376 173 96 107 141 233 135 381 -10 227 -155 416 -375 487 -46 15 -51 19 -38
29 28 20 55 93 50 133 -5 40 -42 95 -75 113 -29 15 -87 18 -123 6 -16 -5 -56
-36 -88 -68 -32 -33 -62 -59 -66 -59 -4 0 -19 12 -32 28 -57 65 -129 151 -175
207 -26 33 -53 65 -58 71 -6 6 -31 35 -56 64 -25 29 -74 88 -110 129 -88 102
-95 110 -192 226 -45 55 -100 116 -120 136 -21 20 -38 41 -38 45 0 5 46 55
103 111 l102 101 71 4 c130 9 238 81 293 197 22 47 26 70 26 141 0 71 -4 94
-27 142 -32 69 -92 129 -166 165 -49 24 -70 28 -142 28 -72 0 -93 -4 -140 -27
-119 -59 -191 -165 -196 -290 -2 -43 -8 -77 -16 -85 -12 -11 -87 61 -468 441
-250 250 -456 458 -457 463 -2 4 521 532 1162 1173 l1165 1165 0 481 c0 377
-3 483 -12 486 -7 3 -228 4 -490 4 l-476 -1 -1166 -1166 -1166 -1165 -1166
1166 -1166 1166 -484 0 c-267 -1 -487 -3 -490 -5z"/>
</g>
</svg>
